<svg xmlns="http://www.w3.org/2000/svg" width="24" height="48" viewBox="0 0 24 72">
    <g>
        <path d="M12.6,23c0.9-1.5,0.1-3.3-0.4-5c-0.5-1.7-0.1-2.8,1.6-2.6c2.1,0.2,2.9,0.7,4.7,0.7c1.8,0,2.2-0.6,2.3-1.1 c0.1-0.7-0.3-1.1-0.3-1.5s1.5-0.6,1.5-1.9c0-1.4-1.2-1.3-1.2-1.7c0-0.4,1-0.6,1-1.7c0-1.1-1.4-1.2-1.4-1.7c0-0.5,0.5-0.6,0.5-1.3 c0-0.7-1.4-2.2-6.4-2.2C6,3,7,5,3,5v7.5c2.1,0,2,1.8,3.4,3.2c1.4,1.4,3.3,4.7,3.8,7.2C10.6,24.7,12.1,23.9,12.6,23z"/>
    </g>
    <g transform="translate(0, 24)">
        <path stroke="#FFF" stroke-width="2" fill="none" d="M12.6,23c0.9-1.5,0.1-3.3-0.4-5c-0.5-1.7-0.1-2.8,1.6-2.6c2.1,0.2,2.9,0.7,4.7,0.7c1.8,0,2.2-0.6,2.3-1.1 c0.1-0.7-0.3-1.1-0.3-1.5s1.5-0.6,1.5-1.9c0-1.4-1.2-1.3-1.2-1.7c0-0.4,1-0.6,1-1.7c0-1.1-1.4-1.2-1.4-1.7c0-0.5,0.5-0.6,0.5-1.3 c0-0.7-1.4-2.2-6.4-2.2C6,3,7,5,3,5v7.5c2.1,0,2,1.8,3.4,3.2c1.4,1.4,3.3,4.7,3.8,7.2C10.6,24.7,12.1,23.9,12.6,23z"/>
    </g>
</svg>
